<svg xmlns="http://www.w3.org/2000/svg" viewBox="0 0 232 50.36"><title>logo-admin dark</title><g id="Layer_1" data-name="Layer 1"><path d="M19.66,15.59C41.2-3.17,59.45,16,48.89,30.43a9.06,9.06,0,0,1-2.52,2.45c5.12-2.65,10-14.91,2.19-23.69,13.36,10.71,4.75,22.25,4.32,22.18a10.2,10.2,0,0,0,2.54-3.07C51.05,39.19,42.14,43.13,32.33,39.23c2.74,2.07,7,2.62,11.09,3.11C25.63,44.83,18.11,26.52,25.2,19.54c-3.37,3.26-4.27,5.49-5.46,9.81-.82-6,5-14,12-16.21,7.62-2.53,13.74,1.17,15.31,5.37C44.81,10.66,34.3,9,22.83,16c1.76-2.36,7.58-5.22,10.58-5.28-1.51-.43-7.67,1-13.75,4.92" style="fill:#cd2030"/><path d="M19.66,15.59C41.2-3.17,59.45,16,48.89,30.43a9.06,9.06,0,0,1-2.52,2.45c5.12-2.65,10-14.91,2.19-23.69,13.36,10.71,4.75,22.25,4.32,22.18a10.2,10.2,0,0,0,2.54-3.07C51.05,39.19,42.14,43.13,32.33,39.23c2.74,2.07,7,2.62,11.09,3.11C25.63,44.83,18.11,26.52,25.2,19.54c-3.37,3.26-4.27,5.49-5.46,9.81-.82-6,5-14,12-16.21,7.62-2.53,13.74,1.17,15.31,5.37C44.81,10.66,34.3,9,22.83,16c1.76-2.36,7.58-5.22,10.58-5.28-1.51-.43-7.67,1-13.75,4.92Z" style="fill:none;stroke:#cd2030;stroke-width:0.025750650092959px"/><path d="M31.76,23.87a6.13,6.13,0,0,1,6.14-6.13h0A6.13,6.13,0,0,1,44,23.87h0a6.14,6.14,0,0,1-12.28,0" style="fill:#ffd445"/><path d="M31.93,23.87a6,6,0,0,1,6-6h0a6,6,0,0,1,6,6h0a6,6,0,0,1-6,6h0a6,6,0,0,1-6-6h0" style="fill:#ffd650"/><path d="M32.11,23.87a5.8,5.8,0,1,1,5.79,5.8,5.79,5.79,0,0,1-5.79-5.8h0" style="fill:#ffd95c"/><path d="M32.28,23.87a5.62,5.62,0,0,1,5.62-5.62h0a5.63,5.63,0,1,1-5.62,5.63h0" style="fill:#ffda67"/><path d="M32.45,23.87a5.46,5.46,0,0,1,5.45-5.45h0a5.45,5.45,0,0,1,5.45,5.45h0a5.45,5.45,0,0,1-5.45,5.45h0a5.44,5.44,0,0,1-5.45-5.44h0" style="fill:#ffdc71"/><path d="M32.62,23.87a5.28,5.28,0,1,1,5.28,5.28,5.27,5.27,0,0,1-5.28-5.28h0" style="fill:#ffde7d"/><path d="M32.79,23.87a5.11,5.11,0,0,1,5.11-5.1h0a5.11,5.11,0,1,1-5.11,5.11h0" style="fill:#ffe085"/><path d="M33,23.87a4.93,4.93,0,0,1,4.93-4.93h0A4.94,4.94,0,1,1,33,23.88h0" style="fill:#ffe28f"/><path d="M33.14,23.87a4.76,4.76,0,0,1,9.52,0h0a4.76,4.76,0,0,1-9.52.16v-.16" style="fill:#ffe598"/><path d="M33.31,23.87a4.59,4.59,0,1,1,4.59,4.59,4.59,4.59,0,0,1-4.59-4.59" style="fill:#fee6a0"/><path d="M33.48,23.87a4.42,4.42,0,0,1,8.84-.18v.19a4.42,4.42,0,0,1-8.84,0" style="fill:#fee9ab"/><path d="M33.66,23.87a4.24,4.24,0,0,1,4.24-4.24h0a4.25,4.25,0,1,1-4.24,4.25h0" style="fill:#feeab3"/><path d="M33.83,23.87A4.07,4.07,0,1,1,37.9,28a4.07,4.07,0,0,1-4.07-4.08" style="fill:#ffedbc"/><path d="M34,23.87a3.9,3.9,0,1,1,7.8,0h0a3.9,3.9,0,1,1-7.8,0" style="fill:#fff0c5"/><path d="M34.17,23.87A3.73,3.73,0,1,1,37.9,27.6a3.73,3.73,0,0,1-3.73-3.73" style="fill:#fff2ce"/><path d="M34.34,23.87a3.56,3.56,0,1,1,3.56,3.56,3.56,3.56,0,0,1-3.56-3.56" style="fill:#fff3d6"/><path d="M34.52,23.87a3.38,3.38,0,1,1,3.38,3.39,3.38,3.38,0,0,1-3.38-3.39" style="fill:#fef6dd"/><path d="M34.69,23.87a3.21,3.21,0,0,1,6.42-.09v.1a3.21,3.21,0,0,1-6.42,0" style="fill:#fff8e6"/><path d="M34.86,23.87a3,3,0,1,1,3,3,3,3,0,0,1-3-3h0" style="fill:#fffaee"/><path d="M35,23.87a2.87,2.87,0,0,1,5.73,0h0a2.87,2.87,0,1,1-5.73,0" style="fill:#fffdf4"/><path d="M35.21,23.87a2.69,2.69,0,0,1,5.38,0h0a2.69,2.69,0,1,1-5.38,0" style="fill:#fffffd"/><path d="M31.91,32.23a7.71,7.71,0,0,0,4,2.21,9.61,9.61,0,0,0,1.92.19l.78,0a9.47,9.47,0,0,0,2.24-.43A7.85,7.85,0,0,0,43.15,33a7.11,7.11,0,0,0,.87-.75,8.43,8.43,0,0,0,1-1.3,8.94,8.94,0,0,0,1.19-2.85,5,5,0,0,0,0-2.73c0-.08-.07-.16-.1-.23s-.15.05-.46.84c-.09.23-.2.46-.31.69a8.57,8.57,0,0,1-2.82,3.16A8.26,8.26,0,0,1,38,31.24a8.71,8.71,0,0,1-2.85-.42,7.32,7.32,0,0,1-3.3-2.28,12.57,12.57,0,0,1-1.93-3.42s0-.54-.33.36a4.57,4.57,0,0,0,0,2.08,9.38,9.38,0,0,0,1.23,3.18,8.77,8.77,0,0,0,1.14,1.49" style="fill:#fff"/><path d="M35,23.87a2.94,2.94,0,0,1,5.88,0h0a2.94,2.94,0,0,1-5.88,0" style="fill:#fffdf6"/><path d="M35.8,22.25h3.84s-.26,5.69-.32,5.9-.2.33-.26,0c-.36-2.2.3-5.41-.55-5.39h-.37c-.32,0-.33,2.05-.44,2.38s-.16.15-.22.05c-.17-.3,0-2.43-.43-2.43h-.34c-.17,0-.56,1.36-1,1.58-.24.13-.4.1-.21-.14A2.62,2.62,0,0,0,36,22.75h-.42c-.15,0,.23-.5.23-.5" style="fill:#cd2030"/><path d="M65.92,12.27H62.64V11.09h8v1.18h-3.3v9.6H65.92Z" style="fill:#231f20"/><path d="M72.37,18.48l-1.12,3.39H69.81l3.67-10.78h1.68l3.68,10.78H77.35L76.2,18.48Zm3.54-1.09-1.06-3.1c-.24-.71-.4-1.35-.56-2h0q-.24,1-.54,1.95l-1.06,3.12Z" style="fill:#231f20"/><path d="M81.81,11.09V21.87H80.42V11.09Z" style="fill:#231f20"/><path d="M84.24,11.21a16.59,16.59,0,0,1,2.68-.2,4.46,4.46,0,0,1,3,.89,2.92,2.92,0,0,1,1,2.26,3.14,3.14,0,0,1-.84,2.3,4.42,4.42,0,0,1-3.29,1.19,4.71,4.71,0,0,1-1.12-.1v4.32h-1.4Zm1.4,5.21a4.61,4.61,0,0,0,1.15.11c1.68,0,2.7-.82,2.7-2.31s-1-2.11-2.54-2.11a6.09,6.09,0,0,0-1.31.11Z" style="fill:#231f20"/><path d="M98.34,16.82H94.15v3.89h4.67v1.16H92.75V11.09h5.83v1.16H94.15v3.41h4.19Z" style="fill:#231f20"/><path d="M102,11.09V21.87h-1.39V11.09Z" style="fill:#231f20"/><path d="M116.93,17.14c-.08-1.51-.17-3.32-.16-4.66h0c-.37,1.26-.82,2.61-1.37,4.1l-1.9,5.23H112.4l-1.74-5.14c-.51-1.52-1-2.91-1.25-4.19h0c0,1.34-.11,3.15-.21,4.77l-.29,4.62h-1.33l.76-10.78h1.77l1.84,5.21c.45,1.33.82,2.52,1.09,3.64h0c.27-1.09.66-2.28,1.14-3.64l1.92-5.21h1.77l.68,10.78h-1.36Z" style="fill:#231f20"/><path d="M122.29,18.48l-1.12,3.39h-1.44l3.66-10.78h1.68l3.69,10.78h-1.49l-1.15-3.39Zm3.54-1.09-1.06-3.1c-.24-.71-.4-1.35-.56-2h0c-.16.64-.34,1.29-.55,1.95l-1,3.12Z" style="fill:#231f20"/><path d="M131.73,11.09V15.6H137V11.09h1.41V21.87H137V16.82h-5.22v5.05h-1.39V11.09Z" style="fill:#231f20"/><path d="M142.51,18.48l-1.12,3.39H140l3.67-10.78h1.68L149,21.87h-1.49l-1.15-3.39Zm3.54-1.09L145,14.29c-.24-.71-.4-1.35-.57-2h0c-.16.64-.33,1.29-.54,1.95l-1.06,3.12Z" style="fill:#231f20"/><path d="M159.59,17.14c-.08-1.51-.18-3.32-.16-4.66h-.05c-.37,1.26-.82,2.61-1.36,4.1l-1.9,5.23h-1.06l-1.75-5.14c-.51-1.52-.94-2.91-1.24-4.19h0c0,1.34-.11,3.15-.2,4.77l-.29,4.62h-1.33L151,11.09h1.78l1.84,5.21c.45,1.33.81,2.52,1.09,3.64h.05c.27-1.09.65-2.28,1.13-3.64l1.92-5.21h1.78l.67,10.78h-1.36Z" style="fill:#231f20"/><path d="M164.75,11.09v6.38c0,2.42,1.08,3.44,2.52,3.44,1.6,0,2.62-1.05,2.62-3.44V11.09h1.41v6.29c0,3.31-1.74,4.67-4.08,4.67s-3.87-1.26-3.87-4.61V11.09Z" style="fill:#231f20"/><path d="M173.71,11.23a19.77,19.77,0,0,1,3-.22A6.16,6.16,0,0,1,181,12.35a5,5,0,0,1,1.52,3.87,5.73,5.73,0,0,1-1.55,4.2A6.64,6.64,0,0,1,176.24,22a22.56,22.56,0,0,1-2.53-.13Zm1.4,9.54a9.19,9.19,0,0,0,1.4.08c3,0,4.6-1.67,4.6-4.58,0-2.54-1.43-4.16-4.37-4.16a7.88,7.88,0,0,0-1.63.14Z" style="fill:#231f20"/><path d="M184.37,11.23A14.83,14.83,0,0,1,187,11a4.39,4.39,0,0,1,3.12.88,2.65,2.65,0,0,1,.85,2,2.83,2.83,0,0,1-2,2.76v0a2.65,2.65,0,0,1,1.58,2.17,16.77,16.77,0,0,0,.84,3H190a13.72,13.72,0,0,1-.73-2.57c-.31-1.49-.89-2.05-2.16-2.1h-1.31v4.67h-1.39Zm1.39,4.91h1.43c1.49,0,2.43-.81,2.43-2.05,0-1.39-1-2-2.48-2a5.48,5.48,0,0,0-1.38.13Z" style="fill:#231f20"/><path d="M194.8,18.48l-1.12,3.39h-1.44l3.67-10.78h1.68l3.68,10.78h-1.49l-1.15-3.39Zm3.54-1.09-1.06-3.1c-.24-.71-.4-1.35-.56-2h0q-.24,1-.54,1.95l-1.06,3.12Z" style="fill:#231f20"/><path d="M73,35.14c-.08-1.51-.18-3.32-.16-4.66h0c-.37,1.26-.82,2.61-1.36,4.1l-1.91,5.23h-1l-1.75-5.14c-.51-1.52-.94-2.91-1.25-4.19h0c0,1.34-.11,3.15-.21,4.77l-.29,4.62H63.59l.75-10.78h1.77L68,34.3c.44,1.33.81,2.52,1.08,3.64h0c.27-1.09.66-2.28,1.14-3.64l1.92-5.21h1.78l.67,10.78H73.24Z" style="fill:#231f20"/><path d="M78.32,36.48,77.2,39.87H75.76l3.67-10.78h1.68l3.68,10.78H83.3l-1.15-3.39Zm3.54-1.09-1.06-3.1c-.24-.71-.4-1.35-.56-2h0c-.16.64-.33,1.29-.54,2l-1.06,3.12Z" style="fill:#231f20"/><path d="M86.37,39.87V29.09h1.52l3.46,5.45a30.16,30.16,0,0,1,1.93,3.51l0,0c-.13-1.44-.16-2.75-.16-4.43V29.09h1.31V39.87H93.06L89.64,34.4a32.07,32.07,0,0,1-2-3.6h-.05c.08,1.36.11,2.66.11,4.45v4.61Z" style="fill:#231f20"/><path d="M98.64,36.48l-1.12,3.39H96.08l3.67-10.78h1.68l3.68,10.78h-1.49l-1.15-3.39Zm3.54-1.09-1.06-3.1c-.24-.71-.4-1.35-.56-2h0q-.24,1-.54,2l-1.06,3.12Z" style="fill:#231f20"/><path d="M114.66,39.39a9.85,9.85,0,0,1-3.31.6,5.07,5.07,0,0,1-5.54-5.45c0-3.21,2.22-5.57,5.84-5.57a6.71,6.71,0,0,1,2.69.5L114,30.61a5.47,5.47,0,0,0-2.38-.47,4,4,0,0,0-4.34,4.34c0,2.74,1.65,4.35,4.16,4.35a4.57,4.57,0,0,0,1.86-.28V35.33h-2.19V34.21h3.55Z" style="fill:#231f20"/><path d="M122.37,34.82h-4.19v3.89h4.67v1.16h-6.06V29.09h5.82v1.16h-4.43v3.41h4.19Z" style="fill:#231f20"/><path d="M133.75,35.14c-.08-1.51-.18-3.32-.16-4.66h-.05c-.37,1.26-.81,2.61-1.36,4.1l-1.9,5.23h-1.06l-1.75-5.14c-.51-1.52-.94-2.91-1.24-4.19h0c0,1.34-.11,3.15-.2,4.77l-.29,4.62h-1.33l.75-10.78h1.78l1.84,5.21c.45,1.33.82,2.52,1.09,3.64h0c.27-1.09.65-2.28,1.13-3.64l1.92-5.21h1.78l.67,10.78H134Z" style="fill:#231f20"/><path d="M143.11,34.82h-4.2v3.89h4.68v1.16h-6.07V29.09h5.83v1.16h-4.44v3.41h4.2Z" style="fill:#231f20"/><path d="M145.39,39.87V29.09h1.52l3.46,5.45a30.34,30.34,0,0,1,1.94,3.51l0,0c-.13-1.44-.16-2.75-.16-4.43V29.09h1.31V39.87h-1.41l-3.42-5.47a33.73,33.73,0,0,1-2-3.6h0c.08,1.36.12,2.66.12,4.45v4.61Z" style="fill:#231f20"/><path d="M158,30.27h-3.28V29.09h8v1.18h-3.3v9.6H158Z" style="fill:#231f20"/><path d="M167.07,38.18a5,5,0,0,0,2.5.7c1.42,0,2.26-.75,2.26-1.84s-.58-1.58-2-2.14c-1.76-.63-2.85-1.54-2.85-3.06,0-1.68,1.4-2.93,3.49-2.93a4.93,4.93,0,0,1,2.39.53l-.39,1.13a4.3,4.3,0,0,0-2-.51c-1.48,0-2,.88-2,1.62,0,1,.66,1.5,2.15,2.08,1.82.7,2.75,1.58,2.75,3.17S172,40,169.47,40a5.62,5.62,0,0,1-2.75-.68Z" style="fill:#231f20"/><path d="M177.55,39.87V35.3l-3.41-6.21h1.59l1.52,3c.42.82.74,1.48,1.07,2.23h0c.31-.71.68-1.41,1.09-2.23l1.55-3h1.59L179,35.28v4.59Z" style="fill:#231f20"/><path d="M183.41,38.18a5,5,0,0,0,2.5.7c1.42,0,2.25-.75,2.25-1.84s-.57-1.58-2-2.14c-1.76-.63-2.85-1.54-2.85-3.06,0-1.68,1.39-2.93,3.49-2.93a4.88,4.88,0,0,1,2.38.53l-.38,1.13a4.31,4.31,0,0,0-2.05-.51c-1.47,0-2,.88-2,1.62,0,1,.66,1.5,2.14,2.08,1.83.7,2.76,1.58,2.76,3.17s-1.24,3.1-3.78,3.1a5.59,5.59,0,0,1-2.75-.68Z" style="fill:#231f20"/><path d="M193.54,30.27h-3.28V29.09h8v1.18H195v9.6h-1.41Z" style="fill:#231f20"/><path d="M205,34.82h-4.2v3.89h4.68v1.16h-6.07V29.09h5.83v1.16h-4.44v3.41H205Z" style="fill:#231f20"/><path d="M216.4,35.14c-.08-1.51-.17-3.32-.16-4.66h0c-.37,1.26-.82,2.61-1.36,4.1l-1.91,5.23h-1.06l-1.74-5.14c-.51-1.52-.95-2.91-1.25-4.19h0c0,1.34-.11,3.15-.21,4.77l-.29,4.62H207l.76-10.78h1.77l1.84,5.21c.45,1.33.82,2.52,1.09,3.64h.05c.27-1.09.66-2.28,1.14-3.64l1.92-5.21h1.77L218,39.87h-1.36Z" style="fill:#231f20"/></g></svg>