<svg id="Layer_1" data-name="Layer 1" xmlns="http://www.w3.org/2000/svg" viewBox="0 0 190.81 37.92"><title>logo-website</title><path d="M3.86,9.38c21.53-18.77,39.78.36,29.22,14.83a9.06,9.06,0,0,1-2.52,2.45c5.12-2.65,10-14.9,2.2-23.68,13.36,10.7,4.75,22.24,4.31,22.18a10.43,10.43,0,0,0,2.55-3.08C35.24,33,26.34,36.91,16.52,33c2.75,2.08,7,2.62,11.1,3.11C9.82,38.62,2.3,20.31,9.39,13.32,6,16.59,5.13,18.81,3.93,23.14c-.81-6,5-14,12-16.21,7.63-2.54,13.75,1.17,15.31,5.36C29,4.44,18.49,2.79,7,9.73,8.78,7.38,14.61,4.51,17.6,4.45,16.09,4,9.93,5.43,3.86,9.38" style="fill:#cd2030"/><path d="M3.86,9.38c21.53-18.77,39.78.36,29.22,14.83a9.06,9.06,0,0,1-2.52,2.45c5.12-2.65,10-14.9,2.2-23.68,13.36,10.7,4.75,22.24,4.31,22.18a10.43,10.43,0,0,0,2.55-3.08C35.24,33,26.34,36.91,16.52,33c2.75,2.08,7,2.62,11.1,3.11C9.82,38.62,2.3,20.31,9.39,13.32,6,16.59,5.13,18.81,3.93,23.14c-.81-6,5-14,12-16.21,7.63-2.54,13.75,1.17,15.31,5.36C29,4.44,18.49,2.79,7,9.73,8.78,7.38,14.61,4.51,17.6,4.45,16.09,4,9.93,5.43,3.86,9.38Z" style="fill:none;stroke:#cd2030;stroke-width:0.025750650092959px"/><path d="M16,17.66a6.14,6.14,0,0,1,6.14-6.14h0a6.14,6.14,0,0,1,6.14,6.14h0a6.14,6.14,0,0,1-12.28,0" style="fill:#ffd445"/><path d="M16.13,17.66a6,6,0,0,1,6-6h0a6,6,0,0,1,6,6h0a6,6,0,0,1-6,6h0a6,6,0,0,1-6-6h0" style="fill:#ffd650"/><path d="M16.3,17.66a5.8,5.8,0,1,1,5.79,5.79,5.8,5.8,0,0,1-5.79-5.79h0" style="fill:#ffd95c"/><path d="M16.47,17.66A5.62,5.62,0,0,1,22.09,12h0a5.62,5.62,0,1,1-5.62,5.62h0" style="fill:#ffda67"/><path d="M16.64,17.66a5.45,5.45,0,0,1,5.45-5.45h0a5.45,5.45,0,0,1,5.45,5.45h0a5.45,5.45,0,0,1-5.45,5.45h0a5.45,5.45,0,0,1-5.45-5.45h0" style="fill:#ffdc71"/><path d="M16.82,17.66a5.28,5.28,0,1,1,5.27,5.28,5.27,5.27,0,0,1-5.27-5.28h0" style="fill:#ffde7d"/><path d="M17,17.66a5.1,5.1,0,0,1,5.1-5.11h0A5.11,5.11,0,1,1,17,17.66h0" style="fill:#ffe085"/><path d="M17.16,17.66a4.93,4.93,0,0,1,4.93-4.93h0a4.93,4.93,0,1,1-4.93,4.93h0" style="fill:#ffe28f"/><path d="M17.33,17.66a4.76,4.76,0,0,1,9.52,0h0a4.76,4.76,0,1,1-9.52.15v-.15" style="fill:#ffe598"/><path d="M17.5,17.66a4.59,4.59,0,1,1,4.59,4.59,4.59,4.59,0,0,1-4.59-4.59" style="fill:#fee6a0"/><path d="M17.68,17.66a4.42,4.42,0,1,1,8.83-.18v.18a4.42,4.42,0,0,1-8.83,0" style="fill:#fee9ab"/><path d="M17.85,17.66a4.24,4.24,0,0,1,4.24-4.25h0a4.25,4.25,0,1,1-4.24,4.25h0" style="fill:#feeab3"/><path d="M18,17.66a4.07,4.07,0,1,1,4.07,4.07A4.07,4.07,0,0,1,18,17.66" style="fill:#ffedbc"/><path d="M18.19,17.66a3.9,3.9,0,1,1,7.8,0h0a3.9,3.9,0,0,1-7.8,0" style="fill:#fff0c5"/><path d="M18.37,17.66a3.73,3.73,0,1,1,3.72,3.73,3.72,3.72,0,0,1-3.72-3.73" style="fill:#fff2ce"/><path d="M18.54,17.66a3.56,3.56,0,1,1,3.55,3.55,3.55,3.55,0,0,1-3.55-3.55" style="fill:#fff3d6"/><path d="M18.71,17.66A3.39,3.39,0,1,1,22.09,21a3.38,3.38,0,0,1-3.38-3.38" style="fill:#fef6dd"/><path d="M18.88,17.66a3.21,3.21,0,1,1,6.42-.09v.09a3.21,3.21,0,0,1-6.42,0" style="fill:#fff8e6"/><path d="M19.05,17.66a3,3,0,1,1,3,3,3,3,0,0,1-3-3h0" style="fill:#fffaee"/><path d="M19.23,17.66a2.87,2.87,0,1,1,5.73,0h0a2.87,2.87,0,0,1-5.73,0" style="fill:#fffdf4"/><path d="M19.4,17.66a2.7,2.7,0,1,1,5.39,0h0a2.7,2.7,0,0,1-5.39,0" style="fill:#fffffd"/><path d="M16.11,26a7.7,7.7,0,0,0,4,2.2,8.93,8.93,0,0,0,1.92.19q.41,0,.78,0A9.37,9.37,0,0,0,25.06,28a7.82,7.82,0,0,0,2.28-1.17,8.15,8.15,0,0,0,.88-.76,8.35,8.35,0,0,0,1-1.3,8.66,8.66,0,0,0,1.19-2.84,5,5,0,0,0,0-2.74,2.29,2.29,0,0,0-.1-.23c-.11-.19-.14.05-.46.85a5.93,5.93,0,0,1-.31.68,8.55,8.55,0,0,1-2.81,3.16,8.36,8.36,0,0,1-3.18,1.3,9.12,9.12,0,0,1-1.41.13,8.45,8.45,0,0,1-2.85-.43A7.16,7.16,0,0,1,16,22.32a11.8,11.8,0,0,1-1.93-3.42s0-.53-.34.37a4.55,4.55,0,0,0,0,2.07A9.11,9.11,0,0,0,16.11,26" style="fill:#fff"/><path d="M19.15,17.66a2.94,2.94,0,0,1,5.88,0h0a2.94,2.94,0,0,1-5.88,0" style="fill:#fffdf6"/><path d="M20,16h3.85s-.26,5.69-.32,5.89-.21.34-.27,0c-.36-2.2.31-5.4-.54-5.38h-.38c-.32,0-.33,2-.44,2.37-.05.18-.15.15-.21.05-.17-.3,0-2.42-.44-2.42h-.33c-.18,0-.57,1.36-1,1.57-.24.13-.4.1-.2-.14a2.69,2.69,0,0,0,.43-1.43h-.42c-.15,0,.23-.5.23-.5" style="fill:#cd2030"/><path d="M51,9.78a16,16,0,0,1,2.22-.16,4.65,4.65,0,0,1,3.28,1,3.74,3.74,0,0,1,1.14,2.91,4.28,4.28,0,0,1-1.17,3.14,5,5,0,0,1-3.57,1.16,17.16,17.16,0,0,1-1.9-.09Zm1.05,7.15a6.32,6.32,0,0,0,1,.06,3.11,3.11,0,0,0,3.44-3.43c0-1.91-1.06-3.12-3.27-3.12a5.82,5.82,0,0,0-1.22.11Z" style="fill:#c71f44"/><path d="M60.08,9.68v8.08H59V9.68Z" style="fill:#c71f44"/><path d="M63.21,15.22l-.84,2.54H61.29L64,9.68H65.3l2.76,8.08H66.94l-.86-2.54Zm2.65-.82-.79-2.33c-.18-.52-.3-1-.42-1.47h0c-.12.48-.26,1-.41,1.46l-.79,2.34Z" style="fill:#c71f44"/><path d="M76,14.21c-.06-1.13-.13-2.48-.12-3.49h0c-.28.95-.61,1.95-1,3.07l-1.43,3.92h-.79l-1.31-3.85c-.38-1.14-.71-2.18-.93-3.14h0c0,1-.08,2.36-.15,3.57L70,17.76H69l.57-8.08h1.33l1.38,3.91c.33,1,.61,1.88.81,2.72h0c.2-.82.49-1.7.85-2.72L75.4,9.68h1.33l.51,8.08h-1Z" style="fill:#c71f44"/><path d="M85.76,13.63c0,2.79-1.69,4.26-3.76,4.26s-3.63-1.65-3.63-4.1S80,9.54,82.12,9.54,85.76,11.23,85.76,13.63Zm-6.28.14c0,1.72.94,3.27,2.58,3.27s2.59-1.52,2.59-3.36c0-1.61-.84-3.28-2.58-3.28S79.48,12,79.48,13.77Z" style="fill:#c71f44"/><path d="M87.12,17.76V9.68h1.13l2.6,4.09a22.88,22.88,0,0,1,1.45,2.62h0c-.1-1.08-.12-2.06-.12-3.32V9.68h1v8.08H92.13l-2.57-4.1A27.44,27.44,0,0,1,88.05,11h0c.07,1,.09,2,.09,3.34v3.45Z" style="fill:#c71f44"/><path d="M95,9.78a15.93,15.93,0,0,1,2.22-.16,4.6,4.6,0,0,1,3.27,1,3.74,3.74,0,0,1,1.14,2.91,4.28,4.28,0,0,1-1.16,3.14,5,5,0,0,1-3.57,1.16,17,17,0,0,1-1.9-.09Zm1,7.15a6.25,6.25,0,0,0,1,.06,3.11,3.11,0,0,0,3.44-3.43c0-1.91-1.06-3.12-3.27-3.12a5.82,5.82,0,0,0-1.22.11Z" style="fill:#c71f44"/><path d="M106.43,17.76l-2.05-8.08h1.11l1,4.09c.24,1,.45,2,.6,2.79h0c.13-.8.38-1.76.66-2.81l1.08-4.07h1.09l1,4.1c.23,1,.45,1.92.57,2.77h0c.17-.89.4-1.79.65-2.8l1.07-4.07h1.06L112,17.76h-1.09l-1-4.21a22.56,22.56,0,0,1-.52-2.64h0a24.18,24.18,0,0,1-.62,2.64l-1.15,4.21Z" style="fill:#c71f44"/><path d="M115.89,15.22l-.84,2.54H114l2.75-8.08H118l2.76,8.08h-1.12l-.86-2.54Zm2.65-.82-.79-2.33c-.18-.52-.3-1-.42-1.47h0c-.12.48-.26,1-.41,1.46l-.79,2.34Z" style="fill:#c71f44"/><path d="M122.78,17.76V14.33l-2.56-4.65h1.19l1.14,2.23c.31.61.55,1.1.8,1.66h0c.23-.52.5-1.05.81-1.66l1.17-2.23h1.18l-2.71,4.64v3.44Z" style="fill:#c71f44"/><path d="M130,9.78a10.82,10.82,0,0,1,1.91-.16,3.37,3.37,0,0,1,2.22.58,1.72,1.72,0,0,1,.67,1.43,1.93,1.93,0,0,1-1.36,1.78v0a2.09,2.09,0,0,1,1.66,2,2.19,2.19,0,0,1-.68,1.62,4.1,4.1,0,0,1-2.8.75,14.11,14.11,0,0,1-1.62-.09Zm1.05,3.31H132c1.1,0,1.75-.57,1.75-1.35,0-1-.72-1.32-1.78-1.32a5,5,0,0,0-.92.07Zm0,3.88a6.25,6.25,0,0,0,.87.05c1.08,0,2.08-.4,2.08-1.58s-.95-1.55-2.09-1.55h-.86Z" style="fill:#c71f44"/><path d="M137.56,9.68v4.78c0,1.81.81,2.58,1.89,2.58s2-.79,2-2.58V9.68h1.06v4.71c0,2.48-1.31,3.5-3.06,3.5s-2.9-.95-2.9-3.45V9.68Z" style="fill:#c71f44"/><path d="M144.28,9.78a15.93,15.93,0,0,1,2.22-.16,4.65,4.65,0,0,1,3.28,1,3.74,3.74,0,0,1,1.14,2.91,4.28,4.28,0,0,1-1.17,3.14,5,5,0,0,1-3.57,1.16,17,17,0,0,1-1.9-.09Zm1.05,7.15a6.25,6.25,0,0,0,1,.06,3.11,3.11,0,0,0,3.44-3.43c0-1.91-1.06-3.12-3.27-3.12a5.82,5.82,0,0,0-1.22.11Z" style="fill:#c71f44"/><path d="M152.27,9.78a16,16,0,0,1,2.22-.16,4.65,4.65,0,0,1,3.28,1,3.74,3.74,0,0,1,1.14,2.91,4.28,4.28,0,0,1-1.17,3.14,5,5,0,0,1-3.57,1.16,17.16,17.16,0,0,1-1.9-.09Zm1,7.15a6.32,6.32,0,0,0,1.05.06,3.11,3.11,0,0,0,3.45-3.43c0-1.91-1.07-3.12-3.28-3.12a5.82,5.82,0,0,0-1.22.11Z" style="fill:#c71f44"/><path d="M161.31,9.68v3.38h3.91V9.68h1.06v8.08h-1.06V14h-3.91v3.79h-1V9.68Z" style="fill:#c71f44"/><path d="M169.13,9.68v8.08h-1V9.68Z" style="fill:#c71f44"/><path d="M170.81,16.49a3.72,3.72,0,0,0,1.88.53c1.06,0,1.69-.57,1.69-1.38s-.44-1.19-1.53-1.61c-1.32-.47-2.13-1.15-2.13-2.29a2.33,2.33,0,0,1,2.61-2.2,3.72,3.72,0,0,1,1.79.4l-.29.85a3.24,3.24,0,0,0-1.53-.38c-1.11,0-1.53.66-1.53,1.21,0,.75.5,1.13,1.61,1.56,1.37.53,2.06,1.19,2.06,2.37s-.92,2.33-2.83,2.33a4.13,4.13,0,0,1-2.06-.52Z" style="fill:#c71f44"/><path d="M183.69,14.21c-.06-1.13-.14-2.48-.12-3.49h0c-.28.95-.61,1.95-1,3.07l-1.43,3.92h-.79L179,13.86c-.39-1.14-.71-2.18-.94-3.14h0c0,1-.09,2.36-.16,3.57l-.22,3.47h-1l.56-8.08h1.33l1.38,3.91c.34,1,.61,1.88.82,2.72h0c.21-.82.5-1.7.86-2.72l1.44-3.91h1.33l.5,8.08h-1Z" style="fill:#c71f44"/><path d="M51,23.58h.61v2.28h0l.38-.51,1.44-1.77h.76l-1.71,2,1.84,2.71h-.72L52.1,26l-.45.52v1.8H51Z" style="fill:#c71f44"/><path d="M55.67,26.82l-.49,1.48h-.63l1.61-4.72h.73L58.5,28.3h-.65l-.5-1.48Zm1.55-.48L56.76,25c-.11-.31-.18-.59-.25-.86h0c-.07.28-.15.57-.24.86l-.46,1.36Z" style="fill:#c71f44"/><path d="M59.19,23.64a6.71,6.71,0,0,1,1.17-.09,2,2,0,0,1,1.37.38,1.2,1.2,0,0,1,.37.9,1.24,1.24,0,0,1-.89,1.2v0a1.2,1.2,0,0,1,.69,1,7.79,7.79,0,0,0,.37,1.29h-.63a5.47,5.47,0,0,1-.32-1.13c-.14-.65-.39-.89-1-.91H59.8v2h-.61Zm.61,2.16h.62c.66,0,1.07-.36,1.07-.9S61.05,24,60.4,24a2.51,2.51,0,0,0-.6.05Z" style="fill:#c71f44"/><path d="M66.94,26.23c0-.66-.08-1.45-.07-2h0c-.16.55-.35,1.14-.59,1.79l-.83,2.29H65L64.19,26c-.22-.67-.41-1.28-.55-1.84h0c0,.59-.05,1.38-.09,2.09l-.13,2h-.58l.33-4.72h.78l.8,2.28c.2.59.36,1.1.48,1.59h0c.12-.47.29-1,.5-1.59l.84-2.28h.78l.29,4.72h-.59Z" style="fill:#c71f44"/><path d="M69.28,26.82l-.49,1.48h-.63l1.6-4.72h.74l1.61,4.72h-.65L71,26.82Zm1.55-.48L70.36,25c-.1-.31-.17-.59-.24-.86h0c-.07.28-.15.57-.24.86l-.46,1.36Z" style="fill:#c71f44"/><path d="M74.28,23.58h.61v2.28h0l.38-.51,1.44-1.77h.75l-1.7,2,1.84,2.71H76.9L75.34,26l-.45.52v1.8h-.61Z" style="fill:#c71f44"/><path d="M78.91,26.82l-.49,1.48h-.63l1.6-4.72h.74l1.61,4.72h-.65l-.51-1.48Zm1.55-.48L80,25c-.11-.31-.18-.59-.25-.86h0c-.07.28-.15.57-.24.86L79,26.34Z" style="fill:#c71f44"/><path d="M85.92,28.09a4.31,4.31,0,0,1-1.45.26A2.2,2.2,0,0,1,82.05,26a2.36,2.36,0,0,1,2.55-2.44,2.87,2.87,0,0,1,1.18.22l-.15.5a2.32,2.32,0,0,0-1-.21,1.77,1.77,0,0,0-1.9,1.9,1.73,1.73,0,0,0,1.82,1.91,2,2,0,0,0,.81-.13V26.31h-1v-.49h1.56Z" style="fill:#c71f44"/><path d="M87.9,28.3v-2l-1.49-2.72h.69l.67,1.3c.18.36.32.65.47,1h0c.13-.31.29-.62.48-1l.68-1.3h.69l-1.58,2.71v2Z" style="fill:#c71f44"/><path d="M91.25,23.58v2.8c0,1.05.46,1.5,1.09,1.5s1.15-.46,1.15-1.5v-2.8h.62v2.75c0,1.45-.76,2.05-1.79,2.05s-1.69-.55-1.69-2V23.58Z" style="fill:#c71f44"/><path d="M96.65,23.58h.61v4.21h2v.51H96.65Z" style="fill:#c71f44"/><path d="M100.56,23.58V28.3H100V23.58Z" style="fill:#c71f44"/><path d="M101.62,28.3V23.58h.67L103.8,26a12.8,12.8,0,0,1,.85,1.53h0c0-.63-.07-1.21-.07-1.94v-2h.58V28.3h-.62l-1.5-2.39a15.83,15.83,0,0,1-.88-1.58h0c0,.59,0,1.16,0,1.95v2Z" style="fill:#c71f44"/><path d="M108.68,26.09h-1.84v1.7h2v.51h-2.66V23.58h2.55v.51h-1.94v1.5h1.84Z" style="fill:#c71f44"/><path d="M110.44,26.82,110,28.3h-.63l1.6-4.72h.74l1.61,4.72h-.65l-.51-1.48Zm1.55-.48L111.52,25c-.1-.31-.17-.59-.24-.86h0c-.07.28-.14.57-.23.86l-.47,1.36Z" style="fill:#c71f44"/><path d="M117.45,28.09a4.42,4.42,0,0,1-1.45.26A2.22,2.22,0,0,1,113.57,26a2.37,2.37,0,0,1,2.56-2.44,2.91,2.91,0,0,1,1.18.22l-.15.5a2.32,2.32,0,0,0-1-.21,1.77,1.77,0,0,0-1.9,1.9A1.73,1.73,0,0,0,116,27.85a2,2,0,0,0,.81-.13V26.31h-1v-.49h1.56Z" style="fill:#c71f44"/><path d="M120.82,26.09H119v1.7h2v.51h-2.65V23.58h2.55v.51H119v1.5h1.83Z" style="fill:#c71f44"/><path d="M123,26.47a.74.74,0,0,1,1.47,0,.74.74,0,0,1-1.47,0Z" style="fill:#c71f44"/><path d="M127.37,24.1h-1.43v-.52h3.49v.52H128v4.2h-.62Z" style="fill:#c71f44"/><path d="M130.19,26.82l-.49,1.48h-.63l1.61-4.72h.73L133,28.3h-.65l-.5-1.48Zm1.55-.48L131.28,25c-.11-.31-.18-.59-.25-.86h0c-.07.28-.15.57-.24.86l-.46,1.36Z" style="fill:#c71f44"/><path d="M134.32,23.58V28.3h-.61V23.58Z" style="fill:#c71f44"/><path d="M136.16,28.3,135,23.58h.64l.56,2.39c.14.59.27,1.18.35,1.63h0a16.77,16.77,0,0,1,.38-1.64l.63-2.38h.64l.57,2.4c.14.56.26,1.12.33,1.61h0c.1-.51.23-1,.38-1.63l.62-2.38h.62l-1.34,4.72h-.63l-.6-2.46a15,15,0,0,1-.31-1.54h0a14.88,14.88,0,0,1-.36,1.54l-.68,2.46Z" style="fill:#c71f44"/><path d="M141.67,26.82l-.49,1.48h-.63l1.61-4.72h.73l1.61,4.72h-.65l-.5-1.48Zm1.55-.48L142.76,25c-.11-.31-.18-.59-.25-.86h0c-.07.28-.15.57-.24.86l-.46,1.36Z" style="fill:#c71f44"/><path d="M145.19,28.3V23.58h.67L147.37,26a14.38,14.38,0,0,1,.85,1.53h0c0-.63-.07-1.21-.07-1.94v-2h.58V28.3h-.62l-1.5-2.39a15.83,15.83,0,0,1-.88-1.58h0c0,.59.05,1.16.05,1.95v2Z" style="fill:#c71f44"/></svg>