<svg xmlns="http://www.w3.org/2000/svg" viewBox="0 0 36.37 34.81"><defs><style>.cls-1{fill:#cd2030;}.cls-2{fill:none;stroke:#cd2030;stroke-width:0.03px;}.cls-3{fill:#ffd445;}.cls-4{fill:#ffd650;}.cls-5{fill:#ffd95c;}.cls-6{fill:#ffda67;}.cls-7{fill:#ffdc71;}.cls-8{fill:#ffde7d;}.cls-9{fill:#ffe085;}.cls-10{fill:#ffe28f;}.cls-11{fill:#ffe598;}.cls-12{fill:#fee6a0;}.cls-13{fill:#fee9ab;}.cls-14{fill:#feeab3;}.cls-15{fill:#ffedbc;}.cls-16{fill:#fff0c5;}.cls-17{fill:#fff2ce;}.cls-18{fill:#fff3d6;}.cls-19{fill:#fef6dd;}.cls-20{fill:#fff8e6;}.cls-21{fill:#fffaee;}.cls-22{fill:#fffdf4;}.cls-23{fill:#fffffd;}.cls-24{fill:#fff;}.cls-25{fill:#fffdf6;}</style></defs><title>logo-solo</title><g id="Layer_1" data-name="Layer 1"><path class="cls-1" d="M0,7.82c21.54-18.77,39.79.37,29.23,14.83a9.06,9.06,0,0,1-2.52,2.45c5.12-2.65,10-14.9,2.19-23.68,13.36,10.7,4.75,22.25,4.32,22.18a10.33,10.33,0,0,0,2.54-3.07C31.4,31.42,22.49,35.35,12.68,31.45c2.74,2.08,7,2.62,11.09,3.11C6,37.06-1.54,18.75,5.55,11.77,2.18,15,1.28,17.25.09,21.58c-.82-6,5-14,12-16.21,7.62-2.53,13.74,1.17,15.31,5.36C25.16,2.88,14.65,1.23,3.18,8.17,4.94,5.82,10.76,3,13.76,2.89,12.25,2.46,6.09,3.87,0,7.82"/><path class="cls-2" d="M0,7.82c21.54-18.77,39.79.37,29.23,14.83a9.06,9.06,0,0,1-2.52,2.45c5.12-2.65,10-14.9,2.19-23.68,13.36,10.7,4.75,22.25,4.32,22.18a10.33,10.33,0,0,0,2.54-3.07C31.4,31.42,22.49,35.35,12.68,31.45c2.74,2.08,7,2.62,11.09,3.11C6,37.06-1.54,18.75,5.55,11.77,2.18,15,1.28,17.25.09,21.58c-.82-6,5-14,12-16.21,7.62-2.53,13.74,1.17,15.31,5.36C25.16,2.88,14.65,1.23,3.18,8.17,4.94,5.82,10.76,3,13.76,2.89,12.25,2.46,6.09,3.87,0,7.82Z"/><path class="cls-3" d="M12.11,16.1A6.14,6.14,0,0,1,18.25,10h0a6.14,6.14,0,0,1,6.14,6.14h0a6.14,6.14,0,0,1-12.28,0"/><path class="cls-4" d="M12.28,16.1a6,6,0,0,1,6-6h0a6,6,0,0,1,6,6h0a6,6,0,0,1-6,6h0a6,6,0,0,1-6-6h0"/><path class="cls-5" d="M12.46,16.1a5.79,5.79,0,1,1,5.79,5.79,5.79,5.79,0,0,1-5.79-5.79h0"/><path class="cls-6" d="M12.63,16.1a5.61,5.61,0,0,1,5.62-5.62h0a5.62,5.62,0,1,1-5.62,5.62h0"/><path class="cls-7" d="M12.8,16.1a5.45,5.45,0,0,1,5.45-5.45h0A5.45,5.45,0,0,1,23.7,16.1h0a5.45,5.45,0,0,1-5.45,5.45h0A5.45,5.45,0,0,1,12.8,16.1h0"/><path class="cls-8" d="M13,16.1a5.28,5.28,0,1,1,5.28,5.28A5.28,5.28,0,0,1,13,16.1h0"/><path class="cls-9" d="M13.14,16.1A5.1,5.1,0,0,1,18.25,11h0a5.11,5.11,0,1,1-5.11,5.1h0"/><path class="cls-10" d="M13.32,16.1a4.93,4.93,0,0,1,4.93-4.93h0a4.93,4.93,0,1,1-4.93,4.93h0"/><path class="cls-11" d="M13.49,16.1a4.76,4.76,0,1,1,9.52,0h0a4.76,4.76,0,1,1-9.52.15V16.1"/><path class="cls-12" d="M13.66,16.1a4.59,4.59,0,1,1,4.59,4.59,4.59,4.59,0,0,1-4.59-4.59"/><path class="cls-13" d="M13.83,16.1a4.42,4.42,0,1,1,8.84-.18,1.09,1.09,0,0,1,0,.18,4.42,4.42,0,0,1-8.83,0"/><path class="cls-14" d="M14,16.1a4.24,4.24,0,0,1,4.24-4.24h0A4.24,4.24,0,1,1,14,16.1h0"/><path class="cls-15" d="M14.18,16.1a4.07,4.07,0,1,1,4.07,4.07,4.07,4.07,0,0,1-4.07-4.07"/><path class="cls-16" d="M14.35,16.1a3.9,3.9,0,1,1,7.8,0h0a3.9,3.9,0,1,1-7.8,0"/><path class="cls-17" d="M14.52,16.1a3.73,3.73,0,1,1,3.73,3.73,3.73,3.73,0,0,1-3.73-3.73"/><path class="cls-18" d="M14.69,16.1a3.56,3.56,0,1,1,3.56,3.55,3.57,3.57,0,0,1-3.56-3.55"/><path class="cls-19" d="M14.87,16.1a3.38,3.38,0,1,1,3.38,3.38,3.38,3.38,0,0,1-3.38-3.38"/><path class="cls-20" d="M15,16.1A3.21,3.21,0,1,1,21.46,16v.09a3.21,3.21,0,0,1-6.42,0"/><path class="cls-21" d="M15.21,16.1a3,3,0,1,1,3,3,3,3,0,0,1-3-3h0"/><path class="cls-22" d="M15.38,16.1a2.87,2.87,0,1,1,5.73,0h0a2.87,2.87,0,0,1-5.73,0"/><path class="cls-23" d="M15.56,16.1a2.69,2.69,0,0,1,5.38,0h0a2.69,2.69,0,1,1-5.38,0"/><path class="cls-24" d="M12.26,24.46a7.77,7.77,0,0,0,4,2.2,8.93,8.93,0,0,0,1.92.19q.39,0,.78,0a9.47,9.47,0,0,0,2.24-.43,7.82,7.82,0,0,0,2.28-1.17,7.18,7.18,0,0,0,.87-.76,8,8,0,0,0,1.05-1.3,8.88,8.88,0,0,0,1.19-2.84,5,5,0,0,0,0-2.74c0-.08-.07-.15-.1-.23s-.15,0-.46.85c-.09.23-.2.46-.31.68A8.57,8.57,0,0,1,22.9,22a8.26,8.26,0,0,1-3.17,1.3,9.35,9.35,0,0,1-1.41.13,8.71,8.71,0,0,1-2.85-.42,7.34,7.34,0,0,1-3.3-2.29,12.28,12.28,0,0,1-1.93-3.42s0-.53-.33.37a4.52,4.52,0,0,0,0,2.07A9.43,9.43,0,0,0,11.12,23a9.64,9.64,0,0,0,1.14,1.49"/><path class="cls-25" d="M15.31,16.1a2.94,2.94,0,0,1,5.88,0h0a2.94,2.94,0,1,1-5.88,0"/><path class="cls-1" d="M16.15,14.48H20s-.26,5.69-.32,5.89-.2.34-.26,0c-.36-2.19.3-5.4-.55-5.38h-.37c-.32,0-.33,2-.44,2.37-.06.18-.16.15-.22,0-.17-.3,0-2.42-.43-2.42h-.34c-.17,0-.56,1.36-.95,1.57-.24.14-.4.1-.21-.14A2.61,2.61,0,0,0,16.34,15h-.42c-.15,0,.23-.5.23-.5"/></g></svg>